<svg width="546" height="580" viewBox="0 0 546 580" fill="none" xmlns="http://www.w3.org/2000/svg">
<g filter="url(#filter0_di)">
<path d="M108.224 89.5896C342.727 -117.192 589 134.299 589 134.299V588H108.224C108.224 588 -126.279 296.371 108.224 89.5896Z" fill="url(#paint0_linear)"/>
</g>
<g filter="url(#filter1_d)">
<path d="M449.977 8.02272C450.239 7.75675 450.595 7.60551 450.968 7.60227C451.341 7.59903 451.7 7.74405 451.966 8.00544L457.983 13.9188L463.896 7.90175C464.157 7.63578 464.514 7.48454 464.887 7.4813C465.26 7.47806 465.619 7.62308 465.884 7.88447C466.15 8.14586 466.302 8.50219 466.305 8.87509C466.308 9.24799 466.163 9.6069 465.902 9.87287L459.988 15.8899L466.005 21.8033C466.271 22.0646 466.423 22.421 466.426 22.7939C466.429 23.1668 466.284 23.5257 466.023 23.7917C465.761 24.0576 465.405 24.2089 465.032 24.2121C464.659 24.2153 464.3 24.0703 464.034 23.8089L458.017 17.8956L452.104 23.9126C451.843 24.1786 451.486 24.3298 451.113 24.3331C450.74 24.3363 450.382 24.1913 450.116 23.9299C449.85 23.6685 449.698 23.3122 449.695 22.9393C449.692 22.5664 449.837 22.2075 450.098 21.9415L456.012 15.9245L449.995 10.0111C449.729 9.74973 449.577 9.3934 449.574 9.0205C449.571 8.6476 449.716 8.28869 449.977 8.02272V8.02272Z" fill="#1AE216"/>
<path d="M475.07 8.02272C475.331 7.75675 475.688 7.60551 476.061 7.60227C476.434 7.59903 476.793 7.74405 477.058 8.00544L483.076 13.9188L488.989 7.90175C489.25 7.63578 489.607 7.48454 489.979 7.4813C490.352 7.47806 490.711 7.62308 490.977 7.88447C491.243 8.14586 491.394 8.50219 491.398 8.87509C491.401 9.24799 491.256 9.6069 490.995 9.87287L485.081 15.8899L491.098 21.8033C491.364 22.0646 491.515 22.421 491.519 22.7939C491.522 23.1668 491.377 23.5257 491.116 23.7917C490.854 24.0576 490.498 24.2089 490.125 24.2121C489.752 24.2153 489.393 24.0703 489.127 23.8089L483.11 17.8956L477.197 23.9126C476.935 24.1786 476.579 24.3298 476.206 24.3331C475.833 24.3363 475.474 24.1913 475.208 23.9299C474.942 23.6685 474.791 23.3122 474.788 22.9393C474.785 22.5664 474.93 22.2075 475.191 21.9415L481.104 15.9245L475.087 10.0111C474.821 9.74973 474.67 9.3934 474.667 9.0205C474.664 8.6476 474.809 8.28869 475.07 8.02272V8.02272Z" fill="#1AE216"/>
<path d="M424.884 8.02272C425.146 7.75675 425.502 7.60551 425.875 7.60227C426.248 7.59903 426.607 7.74405 426.873 8.00544L432.89 13.9188L438.803 7.90175C439.065 7.63578 439.421 7.48454 439.794 7.4813C440.167 7.47806 440.526 7.62308 440.792 7.88447C441.058 8.14586 441.209 8.50219 441.212 8.87509C441.215 9.24799 441.07 9.6069 440.809 9.87287L434.896 15.8899L440.913 21.8033C441.179 22.0646 441.33 22.421 441.333 22.7939C441.336 23.1668 441.191 23.5257 440.93 23.7917C440.669 24.0576 440.312 24.2089 439.939 24.2121C439.566 24.2153 439.207 24.0703 438.942 23.8089L432.924 17.8956L427.011 23.9126C426.75 24.1786 426.393 24.3298 426.02 24.3331C425.648 24.3363 425.289 24.1913 425.023 23.9299C424.757 23.6685 424.606 23.3122 424.602 22.9393C424.599 22.5664 424.744 22.2075 425.005 21.9415L430.919 15.9245L424.902 10.0111C424.636 9.74973 424.485 9.3934 424.481 9.0205C424.478 8.6476 424.623 8.28869 424.884 8.02272V8.02272Z" fill="#1AE216"/>
<path d="M449.977 33.9808C450.239 33.7148 450.595 33.5636 450.968 33.5603C451.341 33.5571 451.7 33.7021 451.966 33.9635L457.983 39.8769L463.896 33.8598C464.157 33.5938 464.514 33.4426 464.887 33.4394C465.26 33.4361 465.619 33.5812 465.884 33.8425C466.15 34.1039 466.302 34.4603 466.305 34.8332C466.308 35.2061 466.163 35.565 465.902 35.8309L459.988 41.848L466.005 47.7613C466.271 48.0227 466.423 48.379 466.426 48.7519C466.429 49.1248 466.284 49.4838 466.023 49.7497C465.761 50.0157 465.405 50.1669 465.032 50.1702C464.659 50.1734 464.3 50.0284 464.034 49.767L458.017 43.8537L452.104 49.8707C451.843 50.1367 451.486 50.2879 451.113 50.2911C450.74 50.2944 450.382 50.1494 450.116 49.888C449.85 49.6266 449.698 49.2703 449.695 48.8974C449.692 48.5245 449.837 48.1655 450.098 47.8996L456.012 41.8825L449.995 35.9692C449.729 35.7078 449.577 35.3515 449.574 34.9786C449.571 34.6057 449.716 34.2468 449.977 33.9808V33.9808Z" fill="#1AE216"/>
<path d="M475.07 33.9808C475.331 33.7148 475.688 33.5636 476.061 33.5603C476.434 33.5571 476.793 33.7021 477.058 33.9635L483.076 39.8769L488.989 33.8598C489.25 33.5938 489.607 33.4426 489.979 33.4394C490.352 33.4361 490.711 33.5812 490.977 33.8425C491.243 34.1039 491.394 34.4603 491.398 34.8332C491.401 35.2061 491.256 35.565 490.995 35.8309L485.081 41.848L491.098 47.7613C491.364 48.0227 491.515 48.379 491.519 48.7519C491.522 49.1248 491.377 49.4838 491.116 49.7497C490.854 50.0157 490.498 50.1669 490.125 50.1702C489.752 50.1734 489.393 50.0284 489.127 49.767L483.11 43.8537L477.197 49.8707C476.935 50.1367 476.579 50.2879 476.206 50.2911C475.833 50.2944 475.474 50.1494 475.208 49.888C474.942 49.6266 474.791 49.2703 474.788 48.8974C474.785 48.5245 474.93 48.1655 475.191 47.8996L481.104 41.8825L475.087 35.9692C474.821 35.7078 474.67 35.3515 474.667 34.9786C474.664 34.6057 474.809 34.2468 475.07 33.9808V33.9808Z" fill="#1AE216"/>
<path d="M424.884 33.9808C425.146 33.7148 425.502 33.5636 425.875 33.5603C426.248 33.5571 426.607 33.7021 426.873 33.9635L432.89 39.8769L438.803 33.8598C439.065 33.5938 439.421 33.4426 439.794 33.4394C440.167 33.4361 440.526 33.5812 440.792 33.8425C441.058 34.1039 441.209 34.4603 441.212 34.8332C441.215 35.2061 441.07 35.565 440.809 35.8309L434.896 41.848L440.913 47.7613C441.179 48.0227 441.33 48.379 441.333 48.7519C441.336 49.1248 441.191 49.4838 440.93 49.7497C440.669 50.0157 440.312 50.1669 439.939 50.1702C439.566 50.1734 439.207 50.0284 438.942 49.767L432.924 43.8537L427.011 49.8707C426.75 50.1367 426.393 50.2879 426.02 50.2911C425.648 50.2944 425.289 50.1494 425.023 49.888C424.757 49.6266 424.606 49.2703 424.602 48.8974C424.599 48.5245 424.744 48.1655 425.005 47.8996L430.919 41.8825L424.902 35.9692C424.636 35.7078 424.485 35.3515 424.481 34.9786C424.478 34.6057 424.623 34.2468 424.884 33.9808V33.9808Z" fill="#1AE216"/>
<path d="M449.977 59.9389C450.239 59.6729 450.595 59.5217 450.968 59.5184C451.341 59.5152 451.7 59.6602 451.966 59.9216L457.983 65.835L463.896 59.8179C464.157 59.5519 464.514 59.4007 464.887 59.3975C465.26 59.3942 465.619 59.5393 465.884 59.8006C466.15 60.062 466.302 60.4184 466.305 60.7913C466.308 61.1642 466.163 61.5231 465.902 61.789L459.988 67.8061L466.005 73.7194C466.271 73.9808 466.423 74.3371 466.426 74.71C466.429 75.0829 466.284 75.4419 466.023 75.7078C465.761 75.9738 465.405 76.125 465.032 76.1283C464.659 76.1315 464.3 75.9865 464.034 75.7251L458.017 69.8118L452.104 75.8288C451.843 76.0948 451.486 76.246 451.113 76.2492C450.74 76.2525 450.382 76.1075 450.116 75.8461C449.85 75.5847 449.698 75.2284 449.695 74.8555C449.692 74.4826 449.837 74.1236 450.098 73.8577L456.012 67.8406L449.995 61.9273C449.729 61.6659 449.577 61.3096 449.574 60.9367C449.571 60.5638 449.716 60.2049 449.977 59.9389V59.9389Z" fill="#1AE216"/>
<path d="M475.07 59.9389C475.331 59.6729 475.688 59.5217 476.061 59.5184C476.434 59.5152 476.793 59.6602 477.058 59.9216L483.076 65.835L488.989 59.8179C489.25 59.5519 489.607 59.4007 489.979 59.3975C490.352 59.3942 490.711 59.5393 490.977 59.8006C491.243 60.062 491.394 60.4184 491.398 60.7913C491.401 61.1642 491.256 61.5231 490.995 61.789L485.081 67.8061L491.098 73.7194C491.364 73.9808 491.515 74.3371 491.519 74.71C491.522 75.0829 491.377 75.4419 491.116 75.7078C490.854 75.9738 490.498 76.125 490.125 76.1283C489.752 76.1315 489.393 75.9865 489.127 75.7251L483.11 69.8118L477.197 75.8288C476.935 76.0948 476.579 76.246 476.206 76.2492C475.833 76.2525 475.474 76.1075 475.208 75.8461C474.942 75.5847 474.791 75.2284 474.788 74.8555C474.785 74.4826 474.93 74.1236 475.191 73.8577L481.104 67.8406L475.087 61.9273C474.821 61.6659 474.67 61.3096 474.667 60.9367C474.664 60.5638 474.809 60.2049 475.07 59.9389V59.9389Z" fill="#1AE216"/>
<path d="M424.884 59.9389C425.146 59.6729 425.502 59.5217 425.875 59.5184C426.248 59.5152 426.607 59.6602 426.873 59.9216L432.89 65.835L438.803 59.8179C439.065 59.5519 439.421 59.4007 439.794 59.3975C440.167 59.3942 440.526 59.5393 440.792 59.8006C441.058 60.062 441.209 60.4184 441.212 60.7913C441.215 61.1642 441.07 61.5231 440.809 61.789L434.896 67.8061L440.913 73.7194C441.179 73.9808 441.33 74.3371 441.333 74.71C441.336 75.0829 441.191 75.4419 440.93 75.7078C440.669 75.9738 440.312 76.125 439.939 76.1283C439.566 76.1315 439.207 75.9865 438.942 75.7251L432.924 69.8118L427.011 75.8288C426.75 76.0948 426.393 76.246 426.02 76.2492C425.648 76.2525 425.289 76.1075 425.023 75.8461C424.757 75.5847 424.606 75.2284 424.602 74.8555C424.599 74.4826 424.744 74.1236 425.005 73.8577L430.919 67.8406L424.902 61.9273C424.636 61.6659 424.485 61.3096 424.481 60.9367C424.478 60.5638 424.623 60.2049 424.884 59.9389V59.9389Z" fill="#1AE216"/>
</g>
<defs>
<filter id="filter0_di" x="-7.62939e-06" y="8" width="593" height="588" filterUnits="userSpaceOnUse" color-interpolation-filters="sRGB">
<feFlood flood-opacity="0" result="BackgroundImageFix"/>
<feColorMatrix in="SourceAlpha" type="matrix" values="0 0 0 0 0 0 0 0 0 0 0 0 0 0 0 0 0 0 127 0" result="hardAlpha"/>
<feOffset dy="4"/>
<feGaussianBlur stdDeviation="2"/>
<feComposite in2="hardAlpha" operator="out"/>
<feColorMatrix type="matrix" values="0 0 0 0 0 0 0 0 0 0 0 0 0 0 0 0 0 0 0.25 0"/>
<feBlend mode="normal" in2="BackgroundImageFix" result="effect1_dropShadow"/>
<feBlend mode="normal" in="SourceGraphic" in2="effect1_dropShadow" result="shape"/>
<feColorMatrix in="SourceAlpha" type="matrix" values="0 0 0 0 0 0 0 0 0 0 0 0 0 0 0 0 0 0 127 0" result="hardAlpha"/>
<feOffset dx="-3" dy="4"/>
<feGaussianBlur stdDeviation="7.5"/>
<feComposite in2="hardAlpha" operator="arithmetic" k2="-1" k3="1"/>
<feColorMatrix type="matrix" values="0 0 0 0 0 0 0 0 0 0 0 0 0 0 0 0 0 0 0.3 0"/>
<feBlend mode="normal" in2="shape" result="effect2_innerShadow"/>
</filter>
<filter id="filter1_d" x="420.481" y="7.48125" width="75.0375" height="76.7681" filterUnits="userSpaceOnUse" color-interpolation-filters="sRGB">
<feFlood flood-opacity="0" result="BackgroundImageFix"/>
<feColorMatrix in="SourceAlpha" type="matrix" values="0 0 0 0 0 0 0 0 0 0 0 0 0 0 0 0 0 0 127 0" result="hardAlpha"/>
<feOffset dy="4"/>
<feGaussianBlur stdDeviation="2"/>
<feComposite in2="hardAlpha" operator="out"/>
<feColorMatrix type="matrix" values="0 0 0 0 0 0 0 0 0 0 0 0 0 0 0 0 0 0 0.25 0"/>
<feBlend mode="normal" in2="BackgroundImageFix" result="effect1_dropShadow"/>
<feBlend mode="normal" in="SourceGraphic" in2="effect1_dropShadow" result="shape"/>
</filter>
<linearGradient id="paint0_linear" x1="527.421" y1="96" x2="117.974" y2="548.108" gradientUnits="userSpaceOnUse">
<stop stop-color="#5B5293"/>
<stop offset="0.695653" stop-color="#2A225C"/>
</linearGradient>
</defs>
</svg>
