<svg width="75" height="75" viewBox="0 0 75 75" fill="none" xmlns="http://www.w3.org/2000/svg">
<g clip-path="url(#clip0)">
<path d="M51.2696 17.7376C50.9039 17.7376 50.6602 17.7868 50.4141 17.8478V17.8853H50.4516C50.6227 18.2017 50.9039 18.4478 51.1219 18.7407C51.293 19.0712 51.4383 19.4111 51.5977 19.7415L51.6469 19.6923C51.9399 19.4837 52.0875 19.1556 52.0875 18.654C51.9657 18.5064 51.9399 18.3493 51.8321 18.2134C51.7102 18.0048 51.4407 17.897 51.2696 17.7376ZM18.0305 58.9712H15.1383C15.0507 54.3677 14.77 49.7699 14.2969 45.19H14.2735L9.86722 58.9712H7.65707L3.28597 45.19H3.24847C2.90879 49.7766 2.70557 54.3724 2.6391 58.9712H0.00238037C0.145153 53.1919 0.573017 47.4232 1.28441 41.686H4.87269L9.04691 54.3821H9.07035L13.2821 41.686H16.6993C17.4563 47.986 17.9086 53.747 18.0422 58.9712H18.0305ZM30.5789 46.2165C29.4071 52.6126 27.8438 57.2649 25.9289 60.1571C24.4149 62.3907 22.7672 63.5134 20.9719 63.5134C20.4961 63.5134 19.9102 63.3657 19.2024 63.0728V61.5353C19.5563 61.5845 19.9594 61.6196 20.4118 61.6196C21.2532 61.6196 21.9258 61.3759 22.4391 60.9235C23.0485 60.361 23.3555 59.7282 23.3555 59.0321C23.3555 58.5446 23.1235 57.5673 22.636 56.079L19.4743 46.2165H22.3196L24.5907 53.59C25.1039 55.2751 25.3243 56.4353 25.2258 57.1056C26.4821 53.7845 27.3493 50.147 27.8391 46.2165H30.5789ZM69.1032 58.9712H60.8766V41.686H63.6469V56.8478H69.1032V58.9712ZM58.7274 59.3884L55.5539 57.8251C55.8352 57.5931 56.1024 57.3376 56.3485 57.0446C57.7032 55.4696 58.3758 53.1142 58.3758 50.0134C58.3758 44.2876 56.1305 41.4329 51.6375 41.4329C49.4391 41.4329 47.7188 42.1525 46.486 43.6056C45.143 45.1923 44.4586 47.536 44.4586 50.6251C44.4586 53.665 45.0563 55.8868 46.2539 57.3142C47.3532 58.5845 49.0008 59.2314 51.211 59.2314C52.0289 59.2314 52.786 59.1329 53.4703 58.9267L57.6094 61.3431L58.7438 59.3907L58.7274 59.3884ZM48.4383 55.5048C47.7305 54.3821 47.3883 52.5751 47.3883 50.0837C47.3883 45.7267 48.7079 43.554 51.3563 43.554C52.7368 43.554 53.761 44.079 54.4079 45.1173C55.1039 46.2517 55.4579 48.0353 55.4579 50.5009C55.4579 54.8837 54.1266 57.0939 51.4899 57.0939C50.0977 57.0939 49.0852 56.5689 48.4266 55.5306L48.4383 55.5048ZM43.261 54.1876C43.261 55.6525 42.7243 56.8618 41.6368 57.7876C40.5633 58.7275 39.1336 59.2032 37.3149 59.2032C35.618 59.2032 33.9938 58.6665 32.3953 57.5907L33.1407 56.1025C34.5071 56.7868 35.7399 57.129 36.8649 57.129C37.9032 57.129 38.7211 56.897 39.3071 56.4446C39.893 55.9806 40.2469 55.3337 40.2469 54.5157C40.2469 53.4892 39.5274 52.6103 38.2196 51.879C37.0102 51.2087 34.5821 49.8282 34.5821 49.8282C33.2625 48.865 32.6157 47.8384 32.6157 46.1415C32.6157 44.7376 33.1032 43.615 34.0805 42.7595C35.0696 41.8806 36.3258 41.454 37.8891 41.454C39.4444 41.4405 40.9691 41.8865 42.2719 42.736L41.6016 44.2243C40.5544 43.7632 39.4247 43.5184 38.2805 43.5048C37.3899 43.5048 36.7055 43.7251 36.2297 44.1517C35.7539 44.5782 35.461 45.115 35.461 45.7876C35.461 46.8142 36.1946 47.6931 37.5352 48.4478C38.768 49.1181 41.2453 50.536 41.2453 50.536C42.6 51.4876 43.2727 52.5142 43.2727 54.1853L43.261 54.1876ZM72.5719 35.89C70.8985 35.8525 69.6047 36.0236 68.5196 36.4876C68.2149 36.6095 67.7133 36.6095 67.6641 37.0009C67.8352 37.172 67.8586 37.4415 68.0063 37.6712C68.2618 38.0861 68.6907 38.6485 69.0938 38.9415C69.5344 39.2837 69.9727 39.6259 70.425 39.9189C71.243 40.4204 72.1594 40.7134 72.9633 41.2126C73.4157 41.5056 73.8797 41.8829 74.3297 42.19C74.5618 42.3493 74.7071 42.6306 75 42.7267V42.6657C74.8524 42.4829 74.8172 42.2134 74.6696 41.9954C74.461 41.7868 74.2547 41.604 74.0461 41.3978C73.4349 40.5863 72.702 39.874 71.8735 39.286C71.2032 38.8337 69.7383 38.1985 69.4688 37.4298L69.4313 37.3806C69.8836 37.3431 70.4203 37.172 70.8586 37.0501C71.5664 36.8673 72.225 36.9025 72.9586 36.7196C73.2952 36.6323 73.6289 36.5346 73.9594 36.4267V36.2439C73.5821 35.8665 73.3008 35.3532 72.9094 34.9993C71.8309 34.0556 70.6796 33.1982 69.4664 32.4353C68.8079 32.0087 67.9782 31.7392 67.2821 31.3853C67.0383 31.2634 66.6118 31.2025 66.4758 30.9939C66.0985 30.5298 65.8782 29.9321 65.6086 29.3814C64.9955 28.1898 64.4256 26.9765 63.9 25.7439C63.5227 24.9259 63.3024 24.1196 62.8383 23.3626C60.6891 19.8095 58.3454 17.6626 54.7571 15.5509C53.9883 15.1103 53.0602 14.9275 52.0829 14.6954C51.5578 14.672 51.0446 14.6345 50.5196 14.6111C50.1774 14.4634 49.8493 14.0743 49.5563 13.8775C48.361 13.1204 45.2836 11.4962 44.4164 13.6454C43.8539 15.0118 45.2461 16.3431 45.736 17.0275C46.0899 17.515 46.5422 18.054 46.7977 18.5907C46.9453 18.9564 46.9805 19.3361 47.1282 19.7134C47.4586 20.6298 47.775 21.654 48.2157 22.5095C48.4477 22.9501 48.6914 23.4118 48.9844 23.8032C49.1555 24.0353 49.4485 24.1337 49.5094 24.5111C49.2164 24.9376 49.193 25.5611 49.0336 26.0743C48.2766 28.4415 48.5696 31.3595 49.6313 33.1056C49.9735 33.6306 50.7657 34.779 51.8297 34.3384C52.7696 33.9611 52.5633 32.7751 52.8305 31.7251C52.8914 31.4696 52.8539 31.3103 52.9782 31.1392V31.1884C53.2829 31.7743 53.5758 32.3368 53.8454 32.9228C54.4805 33.9493 55.6149 35.011 56.5547 35.7189C57.0563 36.0962 57.4453 36.7454 58.0688 36.9751V36.9142H58.0196C57.886 36.7314 57.7149 36.6446 57.5438 36.4993C57.148 36.1072 56.7806 35.6874 56.4446 35.2431C55.5774 34.0712 54.7969 32.7775 54.1125 31.4462C53.7829 30.7884 53.4818 30.1167 53.2102 29.4329C53.0883 29.1892 53.0883 28.8095 52.8797 28.6876C52.5633 29.14 52.0993 29.529 51.8789 30.1032C51.4758 30.9939 51.4383 32.1048 51.2813 33.2532C51.2086 33.2767 51.2438 33.2532 51.2086 33.3025C50.5383 33.1314 50.3063 32.447 50.0602 31.861C49.425 30.3728 49.3266 27.9915 49.8657 26.2829C50.0133 25.8423 50.6344 24.4642 50.3907 24.0493C50.2571 23.6462 49.8422 23.4142 49.6219 23.0978C49.3407 22.7064 49.0594 22.2071 48.8649 21.7665C48.3633 20.5946 48.1196 19.3009 47.5711 18.129C47.3274 17.5923 46.8868 17.0298 46.5329 16.5306C46.1297 15.9681 45.6914 15.5673 45.3844 14.9064C45.2743 14.6743 45.1289 14.297 45.3 14.0509C45.3375 13.8798 45.4219 13.8189 45.593 13.7696C45.8625 13.5376 46.643 13.8306 46.9125 13.9642C47.6813 14.2689 48.3282 14.5618 48.975 15.0025C49.268 15.2111 49.5844 15.6001 49.9641 15.7103H50.4047C51.075 15.8579 51.8204 15.7478 52.4438 15.9423C53.5547 16.2962 54.5555 16.8095 55.4579 17.3696C58.2173 19.141 60.4614 21.6082 61.9641 24.5228C62.2196 24.9986 62.3297 25.4392 62.5618 25.9384C62.9883 26.9767 63.5391 28.0126 63.9774 29.0017C64.4157 29.9907 64.8328 30.9915 65.4657 31.8095C65.7821 32.2501 67.0289 32.4798 67.6008 32.7001C68.0157 32.8946 68.6625 33.0657 69.0282 33.286C69.7477 33.7267 70.4555 34.2259 71.1282 34.7134C71.4704 34.9454 72.5086 35.4704 72.5696 35.8853L72.5719 35.89Z" fill="white"/>
</g>
<defs>
<clipPath id="clip0">
<rect width="75" height="75" fill="white"/>
</clipPath>
</defs>
</svg>
