<svg width="75" height="75" viewBox="0 0 75 75" fill="none" xmlns="http://www.w3.org/2000/svg">
<path d="M23.4438 0H31.5V3.36875H26.8125V6.7375H31.5V10.1062H23.4438V0Z" fill="white"/>
<path d="M33.1094 0H41.1688V2.93125H36.4812V3.51563H41.1688V10.2531H33.1094V7.17813H37.7969V6.59063H33.1094V0Z" fill="white"/>
<path d="M42.7812 0H50.8344V2.93125H46.1469V3.51563H50.8344V10.2531H42.7812V7.17813H47.4688V6.59063H42.7812V0Z" fill="white"/>
<path fill-rule="evenodd" clip-rule="evenodd" d="M37.4719 75.0001L15.7719 68.9751L9.375 14.7407H65.625L59.2313 68.9689L37.4719 75.0001ZM22.0219 39.2907L22.6187 45.9407H45.6719L44.9 54.5657L37.4813 56.572H37.475L30.0687 54.572L29.5938 49.2688H22.9156L23.8469 59.7126L37.4719 63.4939L51.1187 59.7126L52.7812 41.0751L52.9437 39.2907L54.1437 25.8251H20.825L21.4312 32.4782H46.8563L46.25 39.2907H22.0219Z" fill="white"/>
</svg>
