<svg width="21" height="26" viewBox="0 0 21 26" fill="none" xmlns="http://www.w3.org/2000/svg">
<path d="M9.38472 13.0167L0.462512 4.14539C-0.154171 3.53222 -0.154171 2.54072 0.462512 1.93408L1.94517 0.459874C2.56186 -0.153291 3.55904 -0.153291 4.16917 0.459874L10.4934 6.74808L16.8177 0.459874C17.4344 -0.153291 18.4316 -0.153291 19.0417 0.459874L20.5375 1.92756C21.1542 2.54072 21.1542 3.53222 20.5375 4.13886L11.6153 13.0102C10.9986 13.6299 10.0014 13.6299 9.38472 13.0167ZM11.6153 25.5409L20.5375 16.6696C21.1542 16.0564 21.1542 15.0649 20.5375 14.4583L19.0548 12.9841C18.4381 12.3709 17.441 12.3709 16.8308 12.9841L10.5 19.2658L4.17573 12.9776C3.55904 12.3644 2.56186 12.3644 1.95173 12.9776L0.462512 14.4518C-0.154171 15.0649 -0.154171 16.0564 0.462512 16.6631L9.38472 25.5344C10.0014 26.1541 10.9986 26.1541 11.6153 25.5409Z" fill="#808080"/>
</svg>
