<svg width="75" height="75" viewBox="0 0 75 75" fill="none" xmlns="http://www.w3.org/2000/svg">
<path d="M73.5839 34.1525L40.8324 1.41825C40.3839 0.968685 39.8511 0.612004 39.2645 0.368638C38.6779 0.125271 38.0491 0 37.414 0C36.7789 0 36.1501 0.125271 35.5635 0.368638C34.9769 0.612004 34.4441 0.968685 33.9957 1.41825L27.2082 8.21631L35.8378 16.8328C36.8516 16.489 37.9414 16.4361 38.9836 16.68C40.0259 16.924 40.979 17.4551 41.7347 18.213C43.3472 19.8253 43.7972 22.1428 43.1152 24.1441L51.4167 32.4559C52.4338 32.1018 53.5302 32.0422 54.5797 32.2839C55.6292 32.5256 56.5891 33.0588 57.3487 33.8221C59.6081 36.067 59.6081 39.7039 57.3487 41.9512C56.816 42.4849 56.1833 42.9083 55.4867 43.1971C54.7902 43.486 54.0435 43.6347 53.2894 43.6347C52.5353 43.6347 51.7886 43.486 51.092 43.1971C50.3954 42.9083 49.7627 42.4849 49.23 41.9512C48.43 41.1509 47.8831 40.133 47.6572 39.0243C47.4313 37.9156 47.5365 36.7649 47.9597 35.7155L40.1831 27.9778V48.372C40.7316 48.6415 41.2566 49.007 41.7089 49.4593C43.9425 51.7183 43.9425 55.3411 41.7089 57.5884C40.6261 58.6666 39.1602 59.272 37.632 59.272C36.1038 59.272 34.6378 58.6666 33.555 57.5884C32.885 56.9182 32.3911 56.0929 32.1172 55.1858C31.8433 54.2786 31.7979 53.3179 31.9851 52.389C32.1723 51.4601 32.5863 50.5919 33.1901 49.8616C33.794 49.1314 34.5691 48.5617 35.4464 48.2033V27.6146C34.7467 27.3174 34.109 26.8913 33.5668 26.3585C32.7602 25.5543 32.2121 24.5277 31.9925 23.4101C31.7729 22.2926 31.8917 21.135 32.3339 20.0854L23.8613 11.5673L1.40119 34.0119C0.503316 34.923 0 36.1507 0 37.4297C0 38.7087 0.503316 39.9364 1.40119 40.8475L34.1527 73.5818C34.6012 74.0313 35.134 74.388 35.7206 74.6314C36.3071 74.8747 36.936 75 37.571 75C38.2061 75 38.835 74.8747 39.4215 74.6314C40.0081 74.388 40.5409 74.0313 40.9894 73.5818L73.5815 40.9951C74.0312 40.5467 74.3879 40.014 74.6313 39.4275C74.8747 38.841 75 38.2123 75 37.5773C75 36.9424 74.8747 36.3136 74.6313 35.7272C74.3879 35.1407 74.0312 34.608 73.5815 34.1596L73.5839 34.1525Z" fill="white"/>
</svg>
