<svg width="22" height="25" viewBox="0 0 22 25" fill="none" xmlns="http://www.w3.org/2000/svg">
<path d="M15.5454 2.81818C15.0751 2.69697 13.9309 2.21212 11.9091 2.21212C9.88727 2.21212 8.74302 2.69697 8.27272 2.81818C7.63636 2.30303 5.92363 1 4.0303 1C3.61333 2.21212 3.68363 3.69091 4.0303 4.63636C3.12121 5.84848 2.81818 7.06061 2.81818 8.87879C2.81818 11.5309 3.40363 13.2206 4.63636 14.3333C5.86909 15.4461 7.19515 16 8.87878 16.1515C8.0909 16.8036 8.27272 18.423 8.27272 19.1818V24.0303H15.5454V19.1818C15.5454 18.423 15.7273 16.8036 14.9394 16.1515C16.623 16 17.9491 15.4461 19.1818 14.3333C20.4145 13.2206 21 11.5297 21 8.87879C21 7.06061 20.697 5.84848 19.7879 4.63636C20.1345 3.69091 20.2048 2.21212 19.7879 1C17.8933 1 16.1818 2.30303 15.5454 2.81818Z" fill="#842CAE" fill-opacity="0.2"/>
<path d="M11.9091 2.21212C13.9309 2.21212 15.0751 2.69697 15.5455 2.81818C16.1818 2.30303 17.8945 1 19.7879 1C20.2048 2.21212 20.1345 3.69091 19.7879 4.63636C20.697 5.84848 21 7.06061 21 8.87879C21 11.5309 20.4145 13.2206 19.1818 14.3333C17.9491 15.4461 16.623 16 14.9394 16.1515C15.7273 16.8036 15.5455 18.423 15.5455 19.1818V22.8182" stroke="#842CAE" stroke-width="2" stroke-linecap="round" stroke-linejoin="round"/>
<path d="M11.9091 2.21212C9.88727 2.21212 8.74302 2.69697 8.27272 2.81818C7.63636 2.30303 5.92363 1 4.0303 1C3.61333 2.21212 3.68363 3.69091 4.0303 4.63636C3.12121 5.84848 2.81818 7.06061 2.81818 8.87879C2.81818 11.5309 3.40363 13.2206 4.63636 14.3333C5.86909 15.4461 7.19515 16 8.87878 16.1515C8.0909 16.8036 8.27272 18.423 8.27272 19.1818V22.8182" stroke="#842CAE" stroke-width="2" stroke-linecap="round" stroke-linejoin="round"/>
<path d="M8.27273 20.3939C6.56848 20.3939 4.82545 19.7115 3.80242 18.9539C2.78182 18.1976 2.47879 16.9479 1 16.1515" stroke="#842CAE" stroke-width="2" stroke-linecap="round"/>
</svg>
