<svg width="75" height="75" viewBox="0 0 75 75" fill="none" xmlns="http://www.w3.org/2000/svg">
<path d="M15.875 0H19.2562V3.34063H22.35V0H25.7312V10.1125H22.35V6.72813H19.2562V10.1125H15.8781V0H15.875Z" fill="white"/>
<path d="M30.175 3.35312H27.2V0H36.5344V3.35312H33.5563V10.1125H30.175V3.35312Z" fill="white"/>
<path d="M38.0156 0H41.5406L43.7094 3.55312L45.875 0H49.4V10.1125H46.0344V5.1L43.7094 8.69687H43.65L41.3219 5.10313V10.1125H38.0156V0Z" fill="white"/>
<path d="M51.0813 0H54.4656V6.77188H59.2156V10.1156H51.0813V0Z" fill="white"/>
<path fill-rule="evenodd" clip-rule="evenodd" d="M15.7688 68.9751L9.375 14.7407H65.625L59.2281 68.9689L37.4688 75.0001L15.7688 68.9751ZM28.6969 39.2876L28.0906 32.4751H53.5438L54.1375 25.8251H20.825L22.6187 45.9407H45.6719L44.9 54.5657L37.4813 56.572H37.475L30.0687 54.572L29.5938 49.2688H22.9125L23.8438 59.7126L37.4688 63.4939L51.1156 59.7126L52.7781 41.0751L52.9406 39.2907H28.6969V39.2876Z" fill="white"/>
</svg>
