<svg width="24" height="24" viewBox="0 0 24 24" fill="none" xmlns="http://www.w3.org/2000/svg">
<path d="M18.1111 1H5.88889C4.59227 1 3.34877 1.51508 2.43192 2.43192C1.51508 3.34877 1 4.59227 1 5.88889V18.1111C1 19.4077 1.51508 20.6512 2.43192 21.5681C3.34877 22.4849 4.59227 23 5.88889 23H18.1111C19.4077 23 20.6512 22.4849 21.5681 21.5681C22.4849 20.6512 23 19.4077 23 18.1111V5.88889C23 4.59227 22.4849 3.34877 21.5681 2.43192C20.6512 1.51508 19.4077 1 18.1111 1Z" fill="#842CAE" fill-opacity="0.2" stroke="#842CAE" stroke-width="2" stroke-linejoin="round"/>
<path d="M12 16.8889C13.2966 16.8889 14.5401 16.3738 15.4569 15.457C16.3738 14.5401 16.8889 13.2966 16.8889 12C16.8889 10.7034 16.3738 9.45988 15.4569 8.54304C14.5401 7.62619 13.2966 7.11111 12 7.11111C10.7034 7.11111 9.45985 7.62619 8.54301 8.54304C7.62616 9.45988 7.11108 10.7034 7.11108 12C7.11108 13.2966 7.62616 14.5401 8.54301 15.457C9.45985 16.3738 10.7034 16.8889 12 16.8889Z" fill="#842CAE" fill-opacity="0.2" stroke="#842CAE" stroke-width="2" stroke-linejoin="round"/>
<path d="M18.7222 6.5C19.0464 6.5 19.3573 6.37123 19.5865 6.14202C19.8157 5.91281 19.9444 5.60193 19.9444 5.27778C19.9444 4.95363 19.8157 4.64275 19.5865 4.41354C19.3573 4.18433 19.0464 4.05556 18.7222 4.05556C18.3981 4.05556 18.0872 4.18433 17.858 4.41354C17.6288 4.64275 17.5 4.95363 17.5 5.27778C17.5 5.60193 17.6288 5.91281 17.858 6.14202C18.0872 6.37123 18.3981 6.5 18.7222 6.5Z" fill="#842CAE"/>
</svg>
