<svg width="75" height="75" viewBox="0 0 75 75" fill="none" xmlns="http://www.w3.org/2000/svg">
<path d="M20.52 16.9849L32.85 41.6499L19.625 46.0599L12.985 19.4999L20.52 16.9899V16.9849Z" fill="white"/>
<path d="M46.385 57.5403L39.905 44.5753L55.69 39.3103L61.515 48.4603L46.385 57.5403Z" fill="white"/>
<path d="M60.92 32.3L57.81 33.335L55.22 29.265L58.105 28.54L60.92 32.295V32.3Z" fill="white"/>
<path fill-rule="evenodd" clip-rule="evenodd" d="M0 12.5C0 9.18479 1.31696 6.00537 3.66117 3.66117C6.00537 1.31696 9.18479 0 12.5 0L62.5 0C65.8152 0 68.9946 1.31696 71.3388 3.66117C73.683 6.00537 75 9.18479 75 12.5V62.5C75 65.8152 73.683 68.9946 71.3388 71.3388C68.9946 73.683 65.8152 75 62.5 75H12.5C9.18479 75 6.00537 73.683 3.66117 71.3388C1.31696 68.9946 0 65.8152 0 62.5L0 12.5ZM24.02 12.81C23.7503 12.2728 23.2961 11.8507 22.7405 11.6211C22.1849 11.3916 21.5653 11.3699 20.995 11.56L9.21 15.485C8.61201 15.6841 8.11131 16.1018 7.80814 16.6544C7.50497 17.207 7.4217 17.8537 7.575 18.465L15.43 49.89C15.513 50.2251 15.6644 50.5393 15.8748 50.813C16.0852 51.0866 16.35 51.3137 16.6525 51.48C16.955 51.6463 17.2886 51.7481 17.6324 51.7791C17.9762 51.8101 18.3227 51.7695 18.65 51.66L35.11 46.17L43.12 62.19C43.2741 62.4984 43.4903 62.7716 43.755 62.9925C44.0198 63.2133 44.3273 63.377 44.6584 63.4732C44.9894 63.5695 45.3368 63.5963 45.6787 63.5518C46.0206 63.5074 46.3496 63.3927 46.645 63.215L66.285 51.43C66.5713 51.2584 66.8204 51.0312 67.0175 50.7618C67.2146 50.4925 67.3557 50.1863 67.4326 49.8615C67.5095 49.5367 67.5206 49.1998 67.4652 48.8706C67.4098 48.5415 67.289 48.2267 67.11 47.945L60.58 37.68L65.79 35.945C66.1664 35.82 66.5076 35.6072 66.7855 35.3242C67.0634 35.0412 67.27 34.6962 67.3882 34.3176C67.5064 33.9391 67.5329 33.5378 67.4654 33.147C67.3979 32.7561 67.2384 32.387 67 32.07L61.11 24.215C60.8145 23.8208 60.4091 23.5227 59.9448 23.3581C59.4804 23.1936 58.9778 23.1699 58.5 23.29L50.645 25.255C50.2613 25.3516 49.906 25.5378 49.6084 25.7984C49.3107 26.059 49.0791 26.3866 48.9327 26.7541C48.7863 27.1217 48.7292 27.5187 48.7661 27.9126C48.803 28.3065 48.9328 28.6861 49.145 29.02L52.92 34.96L37.65 40.055L24.02 12.81Z" fill="white"/>
</svg>
