<svg width="26" height="26" viewBox="0 0 26 26" fill="none" xmlns="http://www.w3.org/2000/svg">
<path d="M3.46154 5.92308C4.82101 5.92308 5.92308 4.82101 5.92308 3.46154C5.92308 2.10207 4.82101 1 3.46154 1C2.10207 1 1 2.10207 1 3.46154C1 4.82101 2.10207 5.92308 3.46154 5.92308Z" fill="#842CAE" fill-opacity="0.2" stroke="#842CAE" stroke-width="2"/>
<path d="M1 9.61539H5.92308V25H1V9.61539ZM10.8462 15.4615V25H15.1538V16.3846C15.1538 14.8462 16.0769 13.6154 17.6154 13.6154C19.1538 13.6154 20.0769 15.1538 20.0769 16.3846V25H24.3846V15.4615C24.3846 13.6154 22.2308 9.61539 17.6154 9.61539C13 9.61539 10.8462 13.6154 10.8462 15.4615Z" fill="#842CAE" fill-opacity="0.2" stroke="#842CAE" stroke-width="2" stroke-linejoin="round"/>
</svg>
