<svg width="97" height="97" viewBox="0 0 97 97" fill="none" xmlns="http://www.w3.org/2000/svg">
<path d="M48.5 73.0734C21.7037 73.0734 0 62.0801 0 48.5001C0 34.9201 21.7037 23.9268 48.5 23.9268C75.2962 23.9268 97 34.9201 97 48.5001C97 62.0801 75.2962 73.0734 48.5 73.0734ZM27.5237 40.9422C29.7062 40.9422 31.2017 41.3463 31.9292 42.1951C32.6567 43.0034 32.8183 44.4584 32.4546 46.358C32.0504 48.5001 31.2825 49.8743 30.1104 50.7634C28.9787 51.6526 27.2408 52.0972 24.8967 52.0972H21.3804L23.5225 40.9422H27.5237ZM13.3779 63.3734H19.1979L20.5721 56.3005H25.5433C27.7258 56.3005 29.5042 56.058 30.9187 55.6134C32.3333 55.1284 33.6267 54.3605 34.7987 53.2693C35.7687 52.3801 36.5367 51.4101 37.1429 50.3188C37.7492 49.268 38.1937 48.0555 38.3958 46.7622C39.0425 43.6097 38.5979 41.1443 37.0621 39.4063C35.4858 37.628 33.0608 36.7793 29.7062 36.7793H18.5513L13.3779 63.3734ZM42.68 29.7063L37.5067 56.3005H43.2458L46.2367 41.0634H50.8442C52.2992 41.0634 53.2692 41.3059 53.7137 41.7909C54.1583 42.2759 54.2392 43.1651 53.9967 44.4584L51.6929 56.3005H57.5533L59.9379 43.8926C60.4633 41.3868 60.0592 39.568 58.8467 38.3959C57.6342 37.3047 55.4112 36.7793 52.1779 36.7793H47.045L48.5 29.7063H42.68ZM72.75 40.9422C74.9729 40.9422 76.4279 41.3463 77.1554 42.1951C77.8829 43.0034 78.0446 44.4584 77.6808 46.358C77.2767 48.5001 76.5087 49.8743 75.3771 50.7634C74.205 51.6526 72.4671 52.0972 70.1229 52.0972H66.6875L68.7083 40.9422H72.75ZM58.6042 63.3734H64.4242L65.7983 56.3005H70.7292C72.9521 56.3005 74.7708 56.058 76.1854 55.6134C77.6 55.1284 78.8125 54.3605 80.025 53.2693C80.995 52.3801 81.8033 51.4101 82.3692 50.3188C82.9754 49.268 83.42 48.0555 83.6625 46.7622C84.2688 43.6097 83.8242 41.1443 82.2883 39.4063C80.8333 37.628 78.2871 36.7793 74.9325 36.7793H63.8179L58.6042 63.3734Z" fill="white"/>
</svg>
