<svg width="369" height="638" viewBox="0 0 369 638" fill="none" xmlns="http://www.w3.org/2000/svg">
<g clip-path="url(#clip0)">
<path d="M-124.699 535.453L-124.043 446.812L-61.4975 357.324L-29.2271 404.623L-100.408 538.978L-109.917 542.748L-124.699 535.453Z" fill="#CA2C31"/>
<path d="M-105.026 450.364L-109.452 542.885L-56.4151 524.605L-29.9103 442.85L-42.9441 429.816L-61.7161 388.911L-105.026 450.364Z" fill="#A02422"/>
<path d="M87.2576 413.23L74.0051 446.812L98.7612 515.779C98.7612 515.779 161.307 539.415 162.182 538.54C163.056 537.666 174.997 527.474 174.997 527.474L170.352 444.134L105.155 359.045L87.2576 413.23Z" fill="#A02422"/>
<path d="M98.9251 470.912C98.9251 470.912 109.308 455.228 114.172 441.511C119.036 427.794 123.9 409.705 123.9 409.705L156.389 450.61L162.072 538.54C162.072 538.54 158.465 538.158 136.77 530.125C119.473 523.703 113.353 521.353 113.353 521.353L98.9251 470.912Z" fill="#CA2C31"/>
<path d="M-24.3087 483.864C-24.3087 483.864 -41.3046 498.237 -36.7687 537.147C-32.6154 572.669 -7.66803 612.317 -2.20311 623.465C3.26181 634.614 -1.84788 643.112 4.21818 644.642C10.2842 646.172 19.8752 636.144 30.4771 622.536C41.079 608.929 47.6643 594.747 47.6643 594.747C47.6643 594.747 48.4567 596.578 49.5497 601.168C49.9322 602.808 49.1944 606.442 50.8612 607.781C54.8233 610.978 85.5635 580.402 84.8531 530.726C84.1153 477.087 48.9758 467.633 48.9758 467.633L-24.3087 483.864Z" fill="#F7D74D"/>
<path d="M-6.93026 491.788C-6.93026 491.788 -22.9425 509.604 -15.2096 545.317C-7.47675 581.03 11.1859 612.699 14.219 613.055C17.2247 613.437 33.8654 577.942 42.0081 573.571C47.6096 570.592 49.7409 577.15 52.0362 577.15C53.9489 577.15 66.8735 567.45 65.3433 529.305C63.8404 491.132 31.6247 467.606 31.6247 467.606L-6.93026 491.788Z" fill="#FBF0B4"/>
<path d="M-28.2708 453.834C-28.2708 453.834 -29.1999 469.901 -27.8883 477.279C-26.5767 484.656 -26.1942 485.039 -24.6913 486.159C-23.1885 487.279 -5.64608 498.537 20.0664 498.073C51.6263 497.499 68.0484 485.23 70.125 483.153C72.2017 481.077 70.5076 451.785 70.5076 451.785L-28.2708 453.834Z" fill="#858585"/>
<path d="M55.2058 462.168C55.2058 462.168 78.0218 457.441 93.3509 426.592C114.309 384.43 113.735 337.568 112.451 278.957C111.194 222.395 98.5153 163.319 98.5153 163.319L27.7993 125.119L55.2058 462.168Z" fill="#437687"/>
<path d="M74.2783 383.473L66.2722 367.871L77.1201 359.701C77.1201 359.701 87.7767 355.876 95.5915 353.034C103.406 350.192 112.15 345.219 112.15 345.219L110.046 370.166C110.046 370.166 99.8815 374.757 92.1486 377.79C83.4321 381.205 74.2783 383.473 74.2783 383.473Z" fill="#3F545F"/>
<path d="M-56.4972 163.456C-56.4972 163.456 -67.5363 204.989 -69.5583 278.328C-71.3891 344.427 -67.4817 398.666 -48.8463 429.488C-33.2166 455.282 -17.9422 465.147 7.19647 467.169C33.7833 469.327 55.2331 462.141 55.2331 462.141C55.2331 462.141 66.1629 451.539 76.519 372.052C89.4162 272.863 62.0642 155.723 62.0642 155.723L-56.4972 163.456Z" fill="#8DAFBF"/>
<path d="M67.9938 179.413C67.9938 179.413 35.3682 192.529 -3.706 186.08C-42.5069 179.686 -56.4971 163.128 -56.4971 163.128C-56.4971 163.128 -53.5734 138.945 -35.2659 96.3191C-22.9425 67.6556 0.775236 35.5765 16.7601 33.1993C32.745 30.8221 51.4077 80.4162 51.4077 80.4162L77.776 163.128L67.9938 179.413Z" fill="#D83F22"/>
<path d="M74.9615 383.173C74.9615 383.173 45.123 392.846 18.2083 391.07C-32.6428 387.763 -67.2904 362.953 -67.2904 362.953L-69.367 336.994C-69.367 336.994 -34.8014 365.603 17.9897 367.406C52.3914 368.581 77.8852 359.373 77.8852 359.373C77.8852 359.373 77.3387 365.767 76.4644 372.325C75.9179 376.533 74.9615 383.173 74.9615 383.173Z" fill="#6896A5"/>
<path d="M98.5154 163.319C98.5154 163.319 96.0835 137.169 75.0982 93.7233C45.8609 33.1174 18.591 33.172 18.591 33.172C18.591 33.172 35.3409 59.1577 49.0032 104.899C59.933 141.569 67.0101 179.796 67.0101 179.796C67.0101 179.796 79.4428 175.069 85.4269 171.762C92.9685 167.609 98.5154 163.319 98.5154 163.319Z" fill="#A02422"/>
<path d="M-43.8731 172.637C-43.8731 172.637 -49.7206 208.377 -51.5786 250.894C-53.2728 289.914 -52.1798 318.004 -50.6496 323.25C-48.9828 328.851 -43.8731 334.016 -39.7198 335.109C-35.5664 336.202 -30.812 334.18 -30.0195 328.797C-29.2544 323.387 -31.577 277.071 -29.0905 239.828C-26.8226 205.754 -22.8878 181.654 -22.8878 181.654C-22.8878 181.654 -27.2598 165.915 -30.4841 164.549C-33.7357 163.155 -43.8731 172.637 -43.8731 172.637Z" fill="#B3E1EE"/>
<path d="M-43.8731 172.637C-43.8731 172.637 -40.2935 145.503 -31.8502 120.501C-24.0081 97.2482 -14.9636 75.3612 -6.60232 78.1483C1.34915 80.7988 -8.76095 105.336 -14.2805 130.311C-19.8001 155.286 -22.8604 181.572 -22.8604 181.572C-22.8604 181.572 -29.1998 179.714 -34.4461 177.364C-37.6766 175.971 -40.8242 174.392 -43.8731 172.637Z" fill="#ED6A65"/>
<path d="M21.05 212.203C-8.18731 213.405 -25.5931 238.353 -23.5711 261.251C-21.4397 284.804 -1.02829 303.631 23.4272 302.784C45.6421 301.992 69.4692 283.028 67.3379 255.103C65.4798 230.292 44.959 211.192 21.05 212.203Z" fill="#E1E1E1"/>
<path d="M-10.7557 258.327C-10.9197 276.252 7.1692 293.357 25.9685 290.624C42.3906 288.247 55.3698 274.558 55.1785 257.644C54.9872 240.73 39.4395 225.182 23.5639 224.991C5.33844 224.799 -10.5645 237.806 -10.7557 258.327Z" fill="#3F545F"/>
<path d="M15.7217 423.231C15.7217 423.231 15.4758 389.157 19.192 389.157C22.9081 389.157 33.0728 399.814 36.5704 419.487C40.0406 439.188 42.8277 477.661 42.6091 505.696C42.3632 533.322 38.3738 568.625 36.2425 570.21C34.5757 571.439 25.7772 574.39 20.5855 573.899C15.4758 573.379 9.02721 553.214 7.38773 546.055C5.77558 538.868 15.7217 423.231 15.7217 423.231Z" fill="#A02524"/>
<path d="M5.31111 570.046C9.02725 574.199 20.7768 573.926 20.7768 573.926L19.2193 389.184C19.2193 389.184 10.0929 388.638 5.31112 409.104C0.501989 429.761 -1.13749 450.419 -1.65666 482.798C-2.33978 527.966 1.59496 565.892 5.31111 570.046Z" fill="#CA2C31"/>
</g>
<defs>
<clipPath id="clip0">
<rect width="494.628" height="494.628" fill="white" transform="translate(-331 349.755) rotate(-45)"/>
</clipPath>
</defs>
</svg>
