<svg width="26" height="27" viewBox="0 0 26 27" fill="none" xmlns="http://www.w3.org/2000/svg">
<path d="M13 0C10.7421 0.000605748 8.52317 0.589159 6.56173 1.70773C4.6003 2.82631 2.96393 4.43635 1.81369 6.37939C0.663456 8.32242 0.0389931 10.5315 0.00176767 12.7892C-0.0354577 15.0468 0.515837 17.2753 1.60139 19.2552L0.533138 22.9946C0.435161 23.3375 0.430671 23.7004 0.520134 24.0457C0.609596 24.3909 0.789756 24.706 1.04195 24.9582C1.29413 25.2104 1.60918 25.3905 1.95443 25.48C2.29968 25.5695 2.66258 25.565 3.00552 25.4671L6.74503 24.3987C8.48281 25.3522 10.4156 25.8958 12.3957 25.9878C14.3758 26.0798 16.3507 25.7178 18.1694 24.9295C19.9881 24.1413 21.6025 22.9475 22.8891 21.4396C24.1758 19.9317 25.1006 18.1496 25.5928 16.2295C26.0851 14.3094 26.1317 12.3021 25.7293 10.3612C25.3268 8.4203 24.4859 6.5971 23.2707 5.03103C22.0556 3.46496 20.4984 2.19748 18.7183 1.3255C16.9382 0.453522 14.9823 0.000133829 13 0ZM13 24.0001C11.0246 24.0015 9.0854 23.4701 7.38666 22.4618C7.2695 22.3922 7.13935 22.3472 7.00419 22.3296C6.86903 22.3121 6.73171 22.3224 6.60065 22.3598L2.45602 23.5441L3.64015 19.3994C3.67759 19.2684 3.68786 19.1311 3.67032 18.996C3.65278 18.8609 3.6078 18.7308 3.53815 18.6137C2.29922 16.5262 1.78546 14.0877 2.07689 11.6778C2.36833 9.268 3.44859 7.0222 5.14939 5.29029C6.8502 3.55838 9.07606 2.43761 11.4802 2.10256C13.8844 1.76751 16.3319 2.237 18.4414 3.43789C20.5509 4.63879 22.2041 6.50366 23.1433 8.74199C24.0825 10.9803 24.255 13.4664 23.634 15.8131C23.0131 18.1597 21.6334 20.2351 19.71 21.7159C17.7866 23.1967 15.4274 23.9998 13 24.0001ZM19.5621 14.8838L17.0046 13.4223C16.696 13.2463 16.3462 13.1555 15.991 13.1593C15.6358 13.1631 15.288 13.2613 14.9833 13.4439L13.502 14.3328C12.7399 13.8932 12.107 13.2603 11.6674 12.4982L12.5562 11.0168C12.7388 10.7121 12.837 10.3643 12.8408 10.0091C12.8446 9.65388 12.7538 9.30406 12.5778 8.99552L11.1163 6.43789C10.9531 6.15326 10.7178 5.91669 10.434 5.75203C10.1503 5.58736 9.82811 5.50044 9.50004 5.50001C8.30938 5.50047 7.1674 5.9726 6.32402 6.81306C5.48065 7.65353 5.00459 8.79388 5.00003 9.98453C4.99799 11.4304 5.281 12.8624 5.83289 14.1988C6.38477 15.5352 7.19469 16.7496 8.21633 17.7727C9.23797 18.7958 10.4513 19.6074 11.7869 20.1612C13.1224 20.715 14.5541 21 15.9999 21.0001C16.0052 21.0001 16.0118 21.0029 16.0157 21.0001C17.2063 20.9955 18.3466 20.5194 19.1871 19.676C20.0275 18.8326 20.4996 17.6907 20.5001 16.5C20.4997 16.1719 20.4127 15.8498 20.248 15.566C20.0833 15.2822 19.8467 15.0469 19.5621 14.8838ZM16.0129 19H16.0001C14.8171 19.0001 13.6457 18.7668 12.5529 18.3137C11.4601 17.8606 10.4674 17.1965 9.63152 16.3595C8.79562 15.5224 8.13295 14.5287 7.68142 13.4353C7.22988 12.3418 6.99834 11.1701 7.00003 9.98715C7.00305 9.34003 7.257 8.71931 7.70844 8.25565C8.15988 7.792 8.7736 7.52156 9.42041 7.50127L10.8413 9.98753L9.66779 11.9437C9.58479 12.0819 9.53648 12.2383 9.52697 12.3993C9.51746 12.5603 9.54703 12.7212 9.61316 12.8683C10.3158 14.4323 11.5678 15.6843 13.1319 16.3869C13.279 16.4531 13.4399 16.4827 13.6009 16.4731C13.7619 16.4636 13.9182 16.4153 14.0564 16.3323L16.0126 15.1588L18.4989 16.5795C18.4787 17.2264 18.2082 17.8402 17.7445 18.2916C17.2809 18.7431 16.6601 18.9971 16.0129 19Z" fill="#842CAE"/>
<path opacity="0.2" d="M12.9998 1C10.8813 1.00054 8.80067 1.56179 6.96927 2.62673C5.13787 3.69167 3.62096 5.22236 2.57261 7.06331C1.52427 8.90426 0.981856 10.9899 1.00046 13.1083C1.01907 15.2268 1.59804 17.3025 2.67856 19.1248L1.49443 23.2693C1.44543 23.4408 1.44319 23.6222 1.48792 23.7949C1.53265 23.9675 1.62274 24.125 1.74884 24.2511C1.87495 24.3772 2.03248 24.4673 2.20511 24.5121C2.37775 24.5568 2.55921 24.5546 2.73068 24.5056L6.87519 23.3214C8.46343 24.2638 10.2477 24.827 12.0892 24.967C13.9307 25.107 15.7796 24.8202 17.4921 24.1288C19.2046 23.4374 20.7344 22.36 21.9624 20.9807C23.1904 19.6014 24.0835 17.9572 24.5722 16.1762C25.0609 14.3953 25.1319 12.5256 24.7798 10.7126C24.4277 8.89974 23.6619 7.19255 22.5421 5.72401C21.4223 4.25546 19.9786 3.06516 18.3235 2.2458C16.6685 1.42643 14.8466 1.0001 12.9998 1ZM16.0141 20C14.6985 20.0019 13.3954 19.7442 12.1796 19.2416C10.9637 18.739 9.85903 18.0014 8.92874 17.0711C7.99846 16.1408 7.26088 15.0361 6.75828 13.8203C6.25568 12.6045 5.99794 11.3014 5.99981 9.98577C6.00279 9.05974 6.37295 8.17269 7.0291 7.51922C7.68524 6.86575 8.57378 6.49921 9.49982 6.50001C9.6517 6.50002 9.80089 6.54017 9.93225 6.61641C10.0636 6.69265 10.1725 6.80226 10.2478 6.93414L11.7093 9.49165C11.7974 9.64586 11.8429 9.82076 11.841 9.99836C11.8391 10.176 11.7899 10.3498 11.6986 10.5021L10.5248 12.4583C11.1286 13.7983 12.2016 14.8712 13.5416 15.475L15.4976 14.3013C15.6499 14.2099 15.8239 14.1607 16.0015 14.1588C16.1792 14.1569 16.3541 14.2024 16.5083 14.2905L19.0657 15.7519C19.1976 15.8273 19.3072 15.9362 19.3835 16.0675C19.4597 16.1989 19.4999 16.3481 19.4998 16.5C19.4972 17.425 19.1296 18.3116 18.4768 18.967C17.8241 19.6224 16.9391 19.9936 16.0141 20Z" fill="#842CAE"/>
</svg>
