<svg width="29" height="22" viewBox="0 0 29 22" fill="none" xmlns="http://www.w3.org/2000/svg">
<rect x="2" y="2" width="25" height="18" rx="2" fill="#842CAE" fill-opacity="0.2"/>
<path d="M17.2 10.585L12.475 13.285V7.88501L17.2 10.585Z" fill="#842CAE" stroke="#842CAE" stroke-width="2" stroke-linecap="round" stroke-linejoin="round"/>
<path d="M1 11.5394V9.6292C1 5.72095 1 3.76615 2.22175 2.5093C3.44485 1.2511 5.36995 1.1971 9.2188 1.08775C11.0413 1.03645 12.9043 1 14.5 1C16.0944 1 17.9573 1.03645 19.7812 1.08775C23.6301 1.1971 25.5552 1.2511 26.7769 2.5093C28 3.76615 28 5.7223 28 9.6292V11.5394C28 15.449 28 17.4025 26.7782 18.6607C25.5551 19.9176 23.6314 19.9729 19.7812 20.0809C17.9587 20.1336 16.0957 20.17 14.5 20.17C12.9057 20.17 11.0427 20.1336 9.2188 20.0809C5.36995 19.9729 3.44485 19.9189 2.22175 18.6607C1 17.4025 1 15.4477 1 11.5408V11.5394Z" stroke="#842CAE" stroke-width="2"/>
</svg>
